<svg width="19" height="20" viewBox="0 0 19 20" fill="none" xmlns="http://www.w3.org/2000/svg">
<path d="M18.5 10.2536C18.5 15.3018 14.4642 19.3827 9.5 19.3827C4.53578 19.3827 0.5 15.3018 0.5 10.2536C0.5 5.20535 4.53578 1.12451 9.5 1.12451C14.4642 1.12451 18.5 5.20535 18.5 10.2536Z" stroke="#070707"/>
<mask id="path-2-inside-1_306_3" fill="white">
<path d="M-nan -nanL13.8064 8.16079C13.6823 7.87626 13.5033 7.61842 13.2795 7.4017C13.0556 7.18434 12.7915 7.01161 12.5017 6.8929C12.2012 6.76931 11.8788 6.70605 11.5534 6.70679C11.0969 6.70679 10.6515 6.83056 10.2644 7.06433C10.1033 7.16161 9.89762 7.16161 9.73654 7.06433C9.34946 6.83056 8.90404 6.70679 8.4475 6.70679C8.11876 6.70679 7.80021 6.76913 7.49925 6.8929C7.20847 7.01208 6.9464 7.18351 6.72138 7.4017C6.49728 7.61817 6.31826 7.87607 6.19447 8.16079C6.06575 8.4569 6 8.77136 6 9.09498C6 9.40026 6.06297 9.71838 6.18798 10.042C6.29263 10.3124 6.44264 10.593 6.63433 10.8763C6.93807 11.3246 7.35571 11.7921 7.87429 12.2661C8.73365 13.0517 9.58467 13.5945 9.62079 13.6165L9.84025 13.7558C9.93749 13.8173 10.0625 13.8173 10.1597 13.7558L10.3792 13.6165C10.4153 13.5936 11.2654 13.0517 12.1257 12.2661C12.6443 11.7921 13.0619 11.3246 13.3657 10.8763C13.5573 10.593 13.7083 10.3124 13.812 10.042C13.937 9.71838 14 9.40026 14 9.09498C14.0009 8.77136 13.9352 8.4569 13.8064 8.16079L-nan -nanZ"/>
</mask>
<path d="M13.2795 7.4017L12.5831 8.11933L12.5839 8.12011L13.2795 7.4017ZM12.5017 6.8929L12.1213 7.81775L12.1226 7.81827L12.5017 6.8929ZM11.5534 6.70679V7.7068L11.5557 7.70679L11.5534 6.70679ZM7.49925 6.8929L7.8785 7.81819L7.87957 7.81775L7.49925 6.8929ZM6.72138 7.4017L7.41613 8.12096L7.4175 8.11963L6.72138 7.4017ZM6.19447 8.16079L5.2774 7.76206L5.27737 7.76213L6.19447 8.16079ZM6.18798 10.042L5.25517 10.4023L5.25536 10.4028L6.18798 10.042ZM6.63433 10.8763L5.80613 11.4367L5.80646 11.4372L6.63433 10.8763ZM7.87429 12.2661L8.54904 11.528L8.54893 11.5279L7.87429 12.2661ZM9.62079 13.6165L10.1568 12.7723L10.149 12.7673L10.1411 12.7625L9.62079 13.6165ZM9.84025 13.7558L9.30424 14.6L9.30618 14.6013L9.84025 13.7558ZM10.1597 13.7558L10.6938 14.6013L10.6958 14.6L10.1597 13.7558ZM10.3792 13.6165L9.84338 12.7721L9.84319 12.7723L10.3792 13.6165ZM12.1257 12.2661L12.8001 13.0045L12.8003 13.0042L12.1257 12.2661ZM13.3657 10.8763L14.1935 11.4372L14.1939 11.4367L13.3657 10.8763ZM13.812 10.042L12.8792 9.68165L12.8783 9.68393L13.812 10.042ZM14 9.09498L13 9.09211V9.09498H14ZM14.723 7.76093C14.5465 7.35638 14.2924 6.99043 13.9752 6.6833L12.5839 8.12011C12.7143 8.2464 12.8181 8.39613 12.8899 8.56064L14.723 7.76093ZM13.976 6.68408C13.6601 6.37754 13.2882 6.13443 12.8807 5.96752L12.1226 7.81827C12.2948 7.88879 12.451 7.99115 12.5831 8.11933L13.976 6.68408ZM12.882 5.96805C12.4599 5.79447 12.0076 5.70576 11.5511 5.7068L11.5557 7.70679C11.7501 7.70635 11.9424 7.74415 12.1213 7.81774L12.882 5.96805ZM11.5534 5.70679C10.916 5.70679 10.2916 5.87966 9.7474 6.20833L10.7814 7.92033C11.0113 7.78146 11.2778 7.70679 11.5534 7.70679V5.70679ZM10.2535 6.20833C9.7093 5.87966 9.08491 5.70679 8.4475 5.70679V7.70679C8.72316 7.70679 8.98962 7.78146 9.21956 7.92033L10.2535 6.20833ZM8.4475 5.70679C7.99023 5.70679 7.54231 5.79393 7.11892 5.96805L7.87957 7.81775C8.0581 7.74433 8.2473 7.70679 8.4475 7.70679V5.70679ZM7.11999 5.9676C6.71163 6.13498 6.34195 6.37671 6.02526 6.68378L7.4175 8.11963C7.55086 7.99032 7.70532 7.88917 7.8785 7.81819L7.11999 5.9676ZM6.02663 6.68245C5.70845 6.9898 5.45373 7.3565 5.2774 7.76206L7.11154 8.55952C7.18278 8.39565 7.28611 8.24655 7.41613 8.12095L6.02663 6.68245ZM5.27737 7.76213C5.0942 8.1835 5 8.6336 5 9.09498H7C7 8.90911 7.03729 8.73031 7.11157 8.55944L5.27737 7.76213ZM5 9.09498C5 9.5386 5.09154 9.97877 5.25517 10.4023L7.1208 9.68165C7.0344 9.45798 7 9.26192 7 9.09498H5ZM5.25536 10.4028C5.39145 10.7546 5.57941 11.1016 5.80613 11.4367L7.46254 10.3158C7.30588 10.0843 7.1938 9.87032 7.12061 9.68115L5.25536 10.4028ZM5.80646 11.4372C6.1652 11.9667 6.63984 12.4926 7.19964 13.0042L8.54893 11.5279C8.07158 11.0916 7.71094 10.6825 7.46221 10.3153L5.80646 11.4372ZM7.19953 13.0041C8.11945 13.8452 9.02658 14.4254 9.10051 14.4705L10.1411 12.7625C10.1428 12.7635 9.34785 12.2583 8.54904 11.528L7.19953 13.0041ZM9.08477 14.4607L9.30424 14.6L10.3763 12.9116L10.1568 12.7723L9.08477 14.4607ZM9.30618 14.6013C9.72964 14.8688 10.2703 14.8688 10.6938 14.6013L9.62566 12.9104C9.85466 12.7657 10.1453 12.7657 10.3743 12.9104L9.30618 14.6013ZM10.6958 14.6L10.9152 14.4607L9.84319 12.7723L9.62372 12.9116L10.6958 14.6ZM10.915 14.4608C10.9709 14.4254 11.877 13.8475 12.8001 13.0045L11.4513 11.5277C10.6538 12.256 9.85979 12.7617 9.84338 12.7721L10.915 14.4608ZM12.8003 13.0042C13.3601 12.4926 13.8348 11.9667 14.1935 11.4372L12.5378 10.3153C12.2891 10.6825 11.9284 11.0916 11.4511 11.5279L12.8003 13.0042ZM14.1939 11.4367C14.4194 11.1034 14.6095 10.7553 14.7457 10.4001L12.8783 9.68393C12.8071 9.86964 12.6953 10.0826 12.5375 10.3158L14.1939 11.4367ZM14.7448 10.4023C14.9085 9.97877 15 9.5386 15 9.09498H13C13 9.26191 12.9656 9.45798 12.8792 9.68165L14.7448 10.4023ZM15 9.09784C15.0013 8.63452 14.9067 8.18348 14.7236 7.76213L12.8893 8.55944C12.9636 8.73033 13.0005 8.90819 13 9.09211L15 9.09784ZM9.74743 6.20832C9.90425 6.11361 10.0967 6.11361 10.2535 6.20832L9.21959 7.92035C9.69856 8.2096 10.3024 8.2096 10.7813 7.92035L9.74743 6.20832Z" fill="black" mask="url(#path-2-inside-1_306_3)"/>
</svg>
