<svg width="19" height="17" viewBox="0 0 19 17" fill="none" xmlns="http://www.w3.org/2000/svg">
<path d="M0 5.1914V4.58959C0 4.09102 0.39874 3.68686 0.890625 3.68686H12.4445C13.4417 3.68686 14.25 2.87853 14.25 1.88141C14.25 1.07772 15.2111 0.676195 15.7704 1.24307L18.7392 4.25216C19.0869 4.60471 19.0869 5.17628 18.7392 5.5288L15.7704 8.53788C15.2132 9.10254 14.25 8.70662 14.25 7.89958C14.25 6.90246 13.4417 6.09413 12.4445 6.09413H0.890625C0.39874 6.09413 0 5.68997 0 5.1914ZM18.1094 10.9087H6.55545C5.55833 10.9087 4.75 10.1003 4.75 9.10322C4.75 8.30152 3.79028 7.89657 3.22959 8.46488L0.260842 11.474C-0.0869473 11.8265 -0.0869473 12.3981 0.260842 12.7506L3.22959 15.7597C3.78727 16.3249 4.75 15.9277 4.75 15.1214C4.75 14.1243 5.55833 13.3159 6.55545 13.3159H18.1094C18.6013 13.3159 19 12.9118 19 12.4132V11.8114C19 11.3128 18.6013 10.9087 18.1094 10.9087Z" fill="#070707"/>
</svg>
